<?xml version="1.0" encoding="utf-8"?>
<!-- Generator: Adobe Illustrator 16.0.0, SVG Export Plug-In . SVG Version: 6.00 Build 0)  -->
<!DOCTYPE svg PUBLIC "-//W3C//DTD SVG 1.1//EN" "http://www.w3.org/Graphics/SVG/1.1/DTD/svg11.dtd">
<svg version="1.1" id="Layer_1" xmlns="http://www.w3.org/2000/svg" xmlns:xlink="http://www.w3.org/1999/xlink" x="0px" y="0px"
	 width="100px" height="100px" viewBox="0 0 100 100" enable-background="new 0 0 100 100" xml:space="preserve">
<g>
	<path d="M71.633,2.281H28.367c-4.212,0-7.635,3.423-7.635,7.635v80.168c0,4.213,3.423,7.635,7.635,7.635h43.266
		c4.213,0,7.635-3.422,7.635-7.635V9.916C79.268,5.704,75.846,2.281,71.633,2.281z M43.001,9.254c0-1.044,0.841-1.884,1.884-1.884
		h10.23c1.044,0,1.884,0.84,1.884,1.884v0.051c0,1.043-0.84,1.883-1.884,1.883h-10.23c-1.043,0-1.884-0.84-1.884-1.883V9.254z
		 M50,94.856c-2.277,0-4.136-1.857-4.136-4.135s1.858-4.136,4.136-4.136c2.278,0,4.136,1.858,4.136,4.136S52.278,94.856,50,94.856z
		 M72.905,82.449c0,0.7-0.572,1.272-1.272,1.272H28.367c-0.7,0-1.272-0.573-1.272-1.272V17.551c0-0.699,0.572-1.272,1.272-1.272
		h43.266c0.7,0,1.272,0.573,1.272,1.272V82.449z"/>
	<path d="M41.093,53.182h-5.09c-0.703,0-1.273,0.57-1.273,1.272v5.726c0,0.351,0.286,0.637,0.637,0.637h6.362
		c0.351,0,0.636-0.286,0.636-0.637v-5.726C42.364,53.751,41.795,53.182,41.093,53.182z"/>
	<path d="M52.545,44.273h-5.09c-0.702,0-1.272,0.571-1.272,1.273V60.18c0,0.351,0.286,0.637,0.637,0.637h6.362
		c0.351,0,0.636-0.286,0.636-0.637V45.546C53.817,44.844,53.247,44.273,52.545,44.273z"/>
	<path d="M63.998,37.912h-5.09c-0.703,0-1.272,0.57-1.272,1.272V60.18c0,0.351,0.285,0.637,0.636,0.637h6.362
		c0.351,0,0.637-0.286,0.637-0.637V39.184C65.271,38.481,64.7,37.912,63.998,37.912z"/>
</g>
</svg>
