<?xml version="1.0" encoding="utf-8"?>
<!-- Generator: Adobe Illustrator 16.0.0, SVG Export Plug-In . SVG Version: 6.00 Build 0)  -->
<!DOCTYPE svg PUBLIC "-//W3C//DTD SVG 1.1//EN" "http://www.w3.org/Graphics/SVG/1.1/DTD/svg11.dtd">
<svg version="1.1" id="Layer_1" xmlns="http://www.w3.org/2000/svg" xmlns:xlink="http://www.w3.org/1999/xlink" x="0px" y="0px"
	 width="100px" height="100px" viewBox="0 0 100 100" enable-background="new 0 0 100 100" xml:space="preserve">
<path d="M57,9.254c0-1.043-0.84-1.884-1.885-1.884h-10.23c-1.044,0-1.884,0.841-1.884,1.884v0.05c0,1.043,0.84,1.884,1.884,1.884
	h10.23c1.045,0,1.885-0.84,1.885-1.884V9.254z"/>
<g>
	<path d="M71.633,2.28H28.368c-4.211,0-7.636,3.423-7.636,7.635v80.168c0,4.212,3.425,7.636,7.636,7.636h43.265
		c4.213,0,7.635-3.424,7.635-7.636V9.916C79.268,5.703,75.846,2.28,71.633,2.28z M50,94.855c-2.276,0-4.135-1.857-4.135-4.136
		c0-2.277,1.858-4.136,4.135-4.136c2.279,0,4.136,1.858,4.136,4.136C54.137,92.998,52.279,94.855,50,94.855z M72.906,82.449
		c0,0.699-0.572,1.272-1.273,1.272H28.368c-0.698,0-1.272-0.573-1.272-1.272V17.551c0-0.7,0.574-1.272,1.272-1.272h43.265
		c0.701,0,1.273,0.573,1.273,1.272V82.449z"/>
	<path d="M45.06,41.742c0-2.536,2.379-4.307,5.422-4.307c4.504,0,7.952,3.144,7.952,3.144l2.836-5.323c0,0-3.037-3.193-8.916-3.697
		v-4.66H48v4.763c-5.624,0.911-9.526,4.962-9.526,10.182c0,10.891,17.123,10.285,17.123,16.365c0,2.939-2.482,4.354-5.218,4.354
		c-5.066,0-8.966-3.799-8.966-3.799l-3.546,4.916c0,0,3.598,4,10.134,4.761v4.66h4.354v-4.66c6.182-0.811,9.781-5.217,9.781-10.385
		C62.135,46.706,45.06,47.77,45.06,41.742z"/>
</g>
</svg>
